Black Hawk Down

source:
Black Hawk Down 1080p BDRip[ x264 - dts - mkv ] (oan) 
http://www.imdb.com/title/tt0265086/


ID                               : 1
Format                           : AVC
Format/Info                      : Advanced Video Codec
Format profile                   : Baseline@L2.0
Format settings, CABAC           : No
Format settings, ReFrames        : 3 frames
Codec ID                         : avc1
Codec ID/Info                    : Advanced Video Coding
Duration                         : 2h 24mn
Bit rate mode                    : Variable
Bit rate                         : 400 Kbps
Width                            : 480 pixels
Height                           : 208 pixels
Display aspect ratio             : 2.35:1
Frame rate mode                  : Variable
Frame rate                       : 23.976 fps
Minimum frame rate               : 23.810 fps
Maximum frame rate               : 24.390 fps
Color space                      : YUV
Chroma subsampling               : 4:2:0
Bit depth                        : 8 bits
Scan type                        : Progressive
Bits/(Pixel*Frame)               : 0.167
Stream size                      : 413 MiB (75%)
Writing library                  : x264 core 79

ID                               : 2
Format                           : AAC
Format/Info                      : Advanced Audio Codec
Format version                   : Version 4
Format profile                   : LC
Format settings, SBR             : No
Codec ID                         : 40
Duration                         : 2h 24mn
Bit rate mode                    : Variable
Bit rate                         : 127 Kbps
Maximum bit rate                 : 167 Kbps
Channel(s)                       : 2 channels
Channel positions                : Front: L R
Sampling rate                    : 48.0 KHz
Stream size                      : 131 MiB (24%)
Language                         : English 
http://img52.imageshack.us/img52/8470/vlcsnap00001v.png 
http://img193.imageshack.us/img193/4564/vlcsnap00002wr.png 
http://img408.imageshack.us/img408/9777/vlcsnap00003ni.png 
http://img692.imageshack.us/img692/1433/vlcsnap00004x.png 
http://img197.imageshack.us/img197/6678/vlcsnap00005i.png 
http://img444.imageshack.us/img444/4379/vlcsnap00006p.png 
http://img340.imageshack.us/img340/1359/vlcsnap00007k.png 
http://img20.imageshack.us/img20/9704/vlcsnap00008d.png




PLEASE LET THE TORRENT SEED AND SHARE IT WITH ALL YOU KNOW!

Let me know what I can do to be your trusted source of Handheld videos.





-OOO